# xmcd
#
# Track frame offsets: 
#        150
#        14572
#        29676
#        46745
#        61269
#        80408
#        91359
#        107665
#        121645
#        133237
#
# Disc length: 1951 seconds
#
# Revision: 0
# Processed by: cddbd v1.5.2PL0 Copyright (c) Steve Scherf et al.
# Submitted via: ExactAudioCopy v1.3
#
DISCID=7d079d0a
DTITLE=Tris Munsick - Last Time I Leave
DYEAR=2014
DGENRE=Country
TTITLE0=Last Time I Leave
TTITLE1=Rosalita
TTITLE2=Leroy's Country Store
TTITLE3=Sin City Blues
TTITLE4=Santa Ana Wind
TTITLE5=Wishful Thinking
TTITLE6=Big Sky State of Mind (feat. Tessy Lou Williams)
TTITLE7=Smile
TTITLE8=Moonlight Mile
TTITLE9=North of Cheyenne
EXTD=
EXTT0=
EXTT1=
EXTT2=
EXTT3=
EXTT4=
EXTT5=
EXTT6=
EXTT7=
EXTT8=
EXTT9=
PLAYORDER=
